<?xml version="1.0" standalone="no"?>
<!DOCTYPE svg PUBLIC "-//W3C//DTD SVG 20010904//EN"
 "http://www.w3.org/TR/2001/REC-SVG-20010904/DTD/svg10.dtd">
<svg version="1.0" xmlns="http://www.w3.org/2000/svg"
 width="1600.000000pt" height="815.000000pt" viewBox="0 0 1600.000000 815.000000"
 preserveAspectRatio="xMidYMid meet">
<metadata>
Created by potrace 1.16, written by Peter Selinger 2001-2019
</metadata>
<g transform="translate(0.000000,815.000000) scale(0.100000,-0.100000)"
fill="#000000" stroke="none">
<path d="M1460 5809 l0 -180 883 2 c890 1 985 -1 1132 -36 231 -54 400 -189
509 -407 101 -204 134 -386 116 -648 -29 -430 -179 -689 -488 -841 -105 -51
-241 -85 -407 -101 l-130 -13 -2 -148 c-2 -112 1 -149 11 -153 7 -3 105 4 218
15 234 23 352 54 512 136 322 164 509 416 623 838 27 98 28 111 28 342 0 269
-13 371 -67 530 -53 156 -197 385 -309 492 -151 143 -412 265 -659 307 -239
41 -345 46 -1172 46 l-798 0 0 -181z"/>
<path d="M1490 5210 c0 -49 0 -281 0 -515 0 -234 0 -648 0 -920 l0 -495 165 0
165 0 0 1010 0 1010 -165 0 -165 0 0 -90z"/>
<path d="M2352 4293 l3 -1008 178 -3 177 -2 0 1010 0 1010 -180 0 -180 0 2
-1007z"/>
<path d="M9119 4389 c-226 -53 -369 -271 -369 -560 0 -159 55 -329 135 -417
145 -161 382 -190 637 -79 52 23 57 36 50 144 l-4 53 -41 -36 c-23 -19 -71
-50 -107 -67 -60 -30 -72 -32 -170 -32 -95 0 -110 3 -155 27 -128 68 -195 210
-195 412 1 221 84 374 234 426 127 45 265 11 409 -100 l27 -22 0 90 0 90 -77
31 c-43 17 -98 35 -123 40 -54 12 -200 12 -251 0z"/>
<path d="M10457 4389 c-161 -38 -282 -166 -333 -350 -28 -101 -26 -320 4 -424
66 -228 222 -348 452 -348 229 0 381 116 452 343 20 65 23 95 23 230 -1 143
-3 161 -28 233 -61 175 -170 280 -328 316 -53 13 -189 12 -242 0z m269 -144
c120 -62 174 -177 182 -385 6 -197 -32 -318 -126 -401 -60 -53 -125 -73 -221
-67 -203 12 -310 163 -310 438 -1 172 49 316 132 383 90 74 235 87 343 32z"/>
<path d="M4875 3848 c-98 -293 -180 -539 -183 -546 -3 -10 12 -12 68 -10 l73
3 46 145 47 145 211 3 212 2 48 -150 48 -150 73 0 c39 0 72 4 72 9 0 5 -81
248 -180 542 -99 293 -180 535 -180 536 0 2 -40 3 -88 3 l-88 0 -179 -532z
m353 112 l81 -245 -166 -3 c-91 -1 -168 -1 -170 2 -3 2 32 117 78 256 45 138
85 248 89 243 4 -4 44 -118 88 -253z"/>
<path d="M6158 4374 c-5 -4 -8 -250 -8 -546 l0 -538 69 0 c83 0 77 -20 76 243
l0 187 85 0 86 0 110 -137 c60 -76 137 -173 169 -215 l60 -77 94 -1 c89 0 93
1 79 18 -8 9 -70 85 -137 167 -67 83 -146 178 -174 213 -29 35 -53 66 -55 71
-1 4 13 12 32 19 50 18 131 99 158 157 19 42 23 67 23 150 0 93 -2 103 -29
145 -37 58 -74 87 -149 118 -58 23 -77 26 -272 30 -115 2 -213 1 -217 -4z
m437 -146 c17 -9 41 -28 55 -43 23 -24 25 -34 25 -119 0 -84 -3 -96 -27 -133
-40 -61 -91 -81 -218 -86 -58 -2 -112 -2 -121 1 -14 3 -16 27 -15 200 0 108 4
199 7 202 4 3 65 3 135 0 94 -4 137 -10 159 -22z"/>
<path d="M7530 3835 l0 -545 340 0 340 0 0 60 0 60 -270 0 -270 0 0 210 0 210
250 0 250 0 0 60 0 60 -250 0 -250 0 0 150 0 150 268 2 267 3 3 63 3 62 -341
0 -340 0 0 -545z"/>
<path d="M11670 3836 l0 -546 70 0 70 0 0 215 0 215 88 0 87 -1 170 -214 170
-215 93 0 92 0 -158 193 c-188 228 -226 277 -221 281 2 2 22 13 45 24 51 26
117 91 139 138 10 20 22 65 28 100 20 118 -18 221 -105 284 -72 53 -122 62
-355 67 l-213 5 0 -546z m449 389 c53 -31 74 -67 79 -132 6 -81 -12 -140 -57
-184 -46 -46 -88 -58 -221 -60 l-105 -2 -3 201 c-2 179 -1 201 14 204 9 2 71
1 138 -2 97 -4 128 -9 155 -25z"/>
<path d="M13050 3836 l0 -546 70 0 70 0 0 204 0 203 133 5 c123 4 139 7 198
35 129 60 196 153 206 287 8 110 -14 175 -86 247 -86 86 -139 100 -393 107
l-198 5 0 -547z m431 387 c42 -22 59 -38 77 -73 42 -83 23 -210 -39 -267 -45
-41 -98 -56 -216 -61 l-113 -5 0 217 0 216 118 0 c109 0 123 -2 173 -27z"/>
<path d="M14147 3493 c-4 -3 -7 -51 -7 -105 l0 -98 85 0 85 0 0 105 0 105 -78
0 c-43 0 -82 -3 -85 -7z"/>
<path d="M6903 2425 c-81 -35 -88 -179 -9 -199 34 -8 90 16 111 48 9 13 17 46
18 71 2 40 -2 50 -26 71 -32 27 -49 29 -94 9z m89 -28 c14 -22 8 -82 -12 -114
-33 -55 -102 -53 -116 3 -9 36 12 100 39 119 24 18 76 13 89 -8z"/>
<path d="M8129 2351 c-42 -43 -39 -104 7 -122 46 -17 104 33 104 91 0 26 -34
60 -61 60 -11 0 -34 -13 -50 -29z"/>
</g>
</svg>
